<svg xmlns="http://www.w3.org/2000/svg" viewBox="0 0 128 128" width="128" height="128">
  <title>Base line</title>
  <defs>
    <linearGradient id="fill" x1="0" y1="0" x2="1" y2="1"><stop offset="0" stop-color="#C49A45"/><stop offset="1" stop-color="#7A5A1E"/></linearGradient>
    <radialGradient id="light" cx="0.3" cy="0.05" r="0.9"><stop offset="0" stop-color="#FFFFFF" stop-opacity="0.28"/><stop offset="0.6" stop-color="#FFFFFF" stop-opacity="0"/></radialGradient>
    <linearGradient id="rim" x1="0" y1="0" x2="0" y2="1"><stop offset="0" stop-color="#FFFFFF" stop-opacity="0.35"/><stop offset="1" stop-color="#FFFFFF" stop-opacity="0.06"/></linearGradient>
  </defs>
  <rect x="1" y="1" width="126" height="126" rx="26" fill="url(#fill)"/>
  <rect x="1" y="1" width="126" height="126" rx="26" fill="url(#light)"/>
  <rect x="1.5" y="1.5" width="125" height="125" rx="25.5" fill="none" stroke="url(#rim)"/>
  <g transform="translate(44 22) scale(1.6667)" fill="none" stroke="#FFFFFF" stroke-width="1.9" stroke-linecap="round" stroke-linejoin="round"><path d="M14.106 5.553a2 2 0 0 0 1.788 0l3.659-1.83A1 1 0 0 1 21 4.619v12.764a1 1 0 0 1-.553.894l-4.553 2.277a2 2 0 0 1-1.788 0l-4.212-2.106a2 2 0 0 0-1.788 0l-3.659 1.83A1 1 0 0 1 3 19.381V6.618a1 1 0 0 1 .553-.894l4.553-2.277a2 2 0 0 1 1.788 0z" /><path d="M15 5.764v15" /><path d="M9 3.236v15" /></g>
  <g fill="#FFFFFF" font-family="'Segoe UI', 'Helvetica Neue', Helvetica, Arial, sans-serif" font-size="13" font-weight="700"><text x="64" y="92" text-anchor="middle">Base</text><text x="64" y="107" text-anchor="middle">line</text></g>
</svg>
