<svg xmlns="http://www.w3.org/2000/svg" viewBox="0 0 128 128" width="128" height="128">
  <title>Deep learning</title>
  <defs>
    <linearGradient id="fill" x1="0" y1="0" x2="1" y2="1"><stop offset="0" stop-color="#B25B92"/><stop offset="1" stop-color="#632A4F"/></linearGradient>
    <radialGradient id="light" cx="0.3" cy="0.05" r="0.9"><stop offset="0" stop-color="#FFFFFF" stop-opacity="0.28"/><stop offset="0.6" stop-color="#FFFFFF" stop-opacity="0"/></radialGradient>
    <linearGradient id="rim" x1="0" y1="0" x2="0" y2="1"><stop offset="0" stop-color="#FFFFFF" stop-opacity="0.35"/><stop offset="1" stop-color="#FFFFFF" stop-opacity="0.06"/></linearGradient>
  </defs>
  <rect x="1" y="1" width="126" height="126" rx="26" fill="url(#fill)"/>
  <rect x="1" y="1" width="126" height="126" rx="26" fill="url(#light)"/>
  <rect x="1.5" y="1.5" width="125" height="125" rx="25.5" fill="none" stroke="url(#rim)"/>
  <g transform="translate(44 22) scale(1.6667)" fill="none" stroke="#FFFFFF" stroke-width="1.9" stroke-linecap="round" stroke-linejoin="round"><path d="M2 13a2 2 0 0 0 2-2V7a2 2 0 0 1 4 0v13a2 2 0 0 0 4 0V4a2 2 0 0 1 4 0v13a2 2 0 0 0 4 0v-4a2 2 0 0 1 2-2"/></g>
  <g fill="#FFFFFF" font-family="'Segoe UI', 'Helvetica Neue', Helvetica, Arial, sans-serif" font-size="13" font-weight="700"><text x="64" y="92" text-anchor="middle">Deep</text><text x="64" y="107" text-anchor="middle">learning</text></g>
</svg>
